<svg xmlns="http://www.w3.org/2000/svg" xmlns:xlink="http://www.w3.org/1999/xlink" xmlns:xodm="http://www.corel.com/coreldraw/odm/2003" xml:space="preserve" version="1.1" style="shape-rendering:geometricPrecision; text-rendering:geometricPrecision; image-rendering:optimizeQuality; fill-rule:evenodd; clip-rule:evenodd" viewBox="1819.51 755.2 3309.6 6067.91">
 <defs>
  <style type="text/css">
   <![CDATA[
    .str0 {stroke:#373435;stroke-width:6.94;stroke-linecap:round;stroke-linejoin:round;stroke-miterlimit:2.61313}
    .fil0 {fill:#ED3237}
    .fil1 {fill:#FEFEFE;fill-rule:nonzero}
   ]]>
  </style>
 </defs>
 <g id="Layer_x0020_1">
  <metadata id="CorelCorpID_0Corel-Layer"/>
  <path class="fil0" d="M2832.14 2772.84c4.68,1.64 4.06,-2.89 15.09,-23.19 12.79,-23.54 36.3,-72.99 48.87,-88.22 13.09,8.84 83.58,10.4 105,13.61l219.09 22.34c38.96,5.83 124.15,10.29 163.09,17.28l334.65 31.99c17.45,1.6 35.11,7.25 54.6,7.25 -2.13,12.71 -14.83,36.26 -20.45,47.49l-18.15 42.54c26.89,-38.93 100.7,-203.57 117.94,-252.97l46.78 -142.46c6.87,-23.92 12.63,-49.44 18.22,-75.42 18.31,-84.99 11.17,-184.46 -5.06,-262.96 -21.36,-103.31 -49.04,-197.4 -85.84,-293.94 -87.2,-228.77 -245.21,-527.88 -376.92,-734.44l-213.47 -315.57c-6.36,-9.34 -1.13,-7.3 -12.87,-10.97 46.26,80.98 96.02,134.09 134.91,225.25l17.51 46.48c7.83,23 13.24,44.33 19.45,70.26 45.38,189.48 -12.48,438.02 -71.18,609.91l-175.8 430.45c-26.05,60.66 -113.86,236.82 -141.81,291.61l-173.66 343.65zm0 0c-8.15,7.03 -22.96,40.65 -29.93,54.23l-179.44 348.01c-6.28,12.3 -26.46,47.82 -28.12,59.35 2.81,0.71 -2.54,8.07 5.6,-6.78l36.94 -69.27c24.41,-43.88 2.83,-19.27 67.89,-17.44 45.65,1.28 114.25,13.37 162.11,14.69l584.24 59.56c19.11,0.14 37.06,6.19 53.86,7.24 -8.55,21.37 -80.69,135.45 -79.34,141.02l78.49 -126.35c27.41,-42.95 50.59,-85.24 77.99,-128.19l77.22 -129.11c12.4,-21.81 70.4,-119.58 74.3,-135.87l18.15 -42.54c5.62,-11.23 18.32,-34.78 20.45,-47.49 -19.49,0 -37.15,-5.65 -54.6,-7.25l-334.65 -31.99c-38.94,-6.99 -124.13,-11.45 -163.09,-17.28l-219.09 -22.34c-21.42,-3.21 -91.91,-4.77 -105,-13.61 -12.58,15.22 -36.09,64.68 -48.87,88.22 -11.03,20.3 -10.41,24.82 -15.09,23.19zm738.26 1191.22l-92.28 176.57c-57.43,111.95 -100.19,199.54 -99.92,363.33 0.28,167.24 76.78,348.37 170.81,473.54 9.68,12.89 31.17,37.19 44.37,45.62 37.83,24.16 -15.58,-42.8 -24.44,-117.38 -18.16,-152.82 46.6,-314.94 104.72,-446.53 30.93,-70.04 56.45,-114.71 93.34,-177.21l176.52 -275.76c-0.29,-0.72 -0.45,-1.88 -0.47,-2.3 -0.52,-12.04 5.7,-17.54 15.57,-33.19 5.42,-8.59 14.62,-27.53 20.71,-30.85 -45.64,0.8 -58.91,-2.54 -92.93,-3.73 -16.74,-0.58 -34.27,0.81 -51.01,0.24 -17.21,-0.59 -23.76,-4.03 -44.22,-3.89 -31.59,0.21 -177.43,5.28 -195.43,-3.06 -0.43,6.88 -6.02,14.14 -9.78,20.71 -1.15,2.02 -12.01,19.26 -13.65,14.1 -0.22,-0.69 -1.43,0.28 -1.91,-0.2zm109.57 -201.02c-1.43,11.35 -70.19,125.51 -81.23,146.75 -9.85,18.94 -19.72,34.63 -28.34,54.27 0.48,0.49 1.69,-0.48 1.91,0.2 1.64,5.16 12.5,-12.08 13.65,-14.1 3.76,-6.57 9.34,-13.83 9.78,-20.71 18,8.34 163.85,3.28 195.43,3.06 20.46,-0.14 27,3.3 44.22,3.89 16.74,0.57 34.27,-0.82 51.01,-0.24 34.02,1.19 47.29,4.53 92.93,3.73 -6.09,3.31 -15.29,22.25 -20.71,30.85 -9.87,15.65 -16.09,21.15 -15.57,33.19 0.02,0.42 0.19,1.58 0.47,2.3 7.25,-12.13 12.39,-17.97 19.96,-29.94 7.33,-11.59 12.14,-17.7 19.53,-29.22l94.35 -149.96c5.44,-8.6 12.41,-24.78 18.57,-30.37 -0.47,-1.07 -0.83,-2.52 -0.98,-3.43l7.46 -28.01c4.23,-6.04 1.52,-2.28 3.06,-3.36 -32.14,1.21 -66.01,0.17 -98.45,0.19l-142.76 -7.59c-21.31,-0.32 -135.54,3.99 -146.19,-3.58 -10.2,7.54 -24.8,54.17 -38.09,42.08zm-1324.11 -13.75c-22.57,40.87 -54.09,212.24 -61.78,268.91 -3.81,28.09 -6.48,56.06 -8.08,83.87l0 124.99c12.22,214.25 86.43,415.59 197.33,588.93 101.24,158.25 242.87,300.05 383.07,410.81l91.76 67.39c130.32,91.14 255.08,161.95 401.48,218 11.26,4.31 20.05,6.83 26.81,7.9l12.24 0c18.81,-5.04 -6.06,-40.15 -27.56,-66.04l-102.96 -139.87c-11.66,-16.9 -21.03,-31.17 -32.33,-47.71 -11.25,-16.45 -20.25,-31.57 -31.3,-48.93 -49.43,-77.65 -103.67,-185.25 -136.09,-275.99 -78.01,-218.32 -104.5,-465.59 -30.32,-724.85 6.35,-22.21 12.65,-43.34 19.02,-63.32 3.75,-11.76 6.26,-22.19 9.95,-33 15.39,-45.13 36.41,-111.21 53.98,-152.63l47.67 -117.25c-0.35,-0.81 -0.58,-2.06 -0.64,-2.6 -0.06,-0.52 -0.45,-1.94 -0.48,-2.59l12.42 -37.59c-13.4,-8.44 -75.5,-9.51 -97.51,-13.22l-101.22 -11.38c-22.28,-1.31 -33.11,-1.38 -53.58,-4.4l-354.07 -35.43c-19.32,-3.07 -31.74,-4.16 -52.79,-4.81 -15.65,-0.48 -34.46,-5.18 -48.24,-6.93l-100.89 -7.84c-1.58,3.43 -3.84,11.38 -4.98,13.83 -7.94,16.99 2,6.96 -10.89,11.76zm238.78 -514.85l-10.11 15c-3.3,6.3 -6.32,12.67 -9.4,18.7 -6.41,12.57 -13.13,25.04 -19.07,37.21 -12.67,25.97 -24.38,49.17 -37.68,74.94 -9.05,17.52 -69.86,134.26 -73.8,151.94l5.5 -4.53c5.74,-8.67 9.47,-21.85 20.08,-36.56 21.54,-1.22 33.77,0.2 51.09,3.13 19.43,3.28 32.23,2.2 53.6,4.13 15.32,1.39 30.79,6.72 47.64,7.28 91.78,3.05 223.15,26.95 311.35,29.65l101.8 11.06c19.42,3.28 32.22,2.2 53.6,4.13 15.31,1.38 30.78,6.72 47.64,7.28 23.01,0.76 32.77,1.37 53.57,4.37 14.91,2.15 36.27,1.72 53.3,4.58 18.94,3.17 32.46,5.81 52.53,5.92l-29.13 70.99 9.61 -14.52c3.8,-6.62 5.96,-11.42 9.59,-18.55l139.56 -247.13c-1.34,-5.57 70.79,-119.65 79.34,-141.02 -16.81,-1.05 -34.75,-7.1 -53.86,-7.24l-584.24 -59.56c-47.86,-1.33 -116.45,-13.41 -162.11,-14.69 -65.06,-1.83 -43.47,-26.44 -67.89,17.44l-36.94 69.27c-8.14,14.85 -2.79,7.49 -5.6,6.78zm1518.52 1258.22c-10.41,6.39 -9.29,8.78 -16.56,19.45 -61.5,90.39 -89.11,136.2 -135.09,236.18 -70.23,152.7 -106.91,369.34 -106.92,548.44 0,18.65 -1.18,130.29 25.4,130.29 13.05,-4.09 17.42,-14.53 23.33,-28.49 6.28,-14.86 10.68,-21.31 16.93,-35.99 53.66,-125.91 70.44,-132.24 137.08,-230.15l167.97 -197.67c17.03,-19.99 32.15,-33.8 49.19,-54.01l246.18 -269.78 89.64 -121.41 -6.35 -8.57 -393.84 -37.11c-19.07,-0.15 -37.01,-6.09 -54.05,-7.45 -3.19,5.85 -42.89,56.26 -42.91,56.27zm-1668.57 -960.42c-18.11,25.68 -83.1,184.6 -88.72,217.05 12.89,-4.8 2.95,5.23 10.89,-11.76 1.15,-2.45 3.41,-10.39 4.98,-13.83l100.89 7.84c13.78,1.75 32.59,6.44 48.24,6.93 21.05,0.65 33.47,1.74 52.79,4.81l354.07 35.43c20.47,3.02 31.3,3.09 53.58,4.4l101.22 11.38c22.01,3.71 84.11,4.78 97.51,13.22l-12.42 37.59c0.03,0.65 0.43,2.07 0.48,2.59 0.06,0.54 0.29,1.79 0.64,2.6 5.43,-9.95 7.15,-15.06 11.61,-25.48l61.57 -128.8c6.17,-12.64 22.27,-39.07 25.24,-52.55l29.13 -70.99c-20.07,-0.11 -33.59,-2.75 -52.53,-5.92 -17.04,-2.86 -38.39,-2.43 -53.3,-4.58 -20.8,-3 -30.56,-3.61 -53.57,-4.37 -16.85,-0.56 -32.32,-5.89 -47.64,-7.28 -21.37,-1.93 -34.18,-0.84 -53.6,-4.13l-101.8 -11.06c-88.2,-2.7 -219.57,-26.6 -311.35,-29.65 -16.85,-0.56 -32.32,-5.89 -47.64,-7.28 -21.37,-1.93 -34.17,-0.84 -53.6,-4.13 -17.32,-2.93 -29.56,-4.35 -51.09,-3.13 -10.61,14.7 -14.34,27.89 -20.08,36.56l-5.5 4.53zm2105.39 246.53c8.29,-4.01 9.31,-8.61 13.5,-23.25 16.59,9.97 89.56,10.23 102.76,12.46 11.6,1.95 26.72,4.84 36.35,5.73 12.49,1.16 24.43,-0.74 37.12,1.19l106.69 12.8c0.56,0.19 1.6,0.59 2.31,1.09 3.98,-8.37 2.7,-5.43 2.78,-18.38 3.83,8.71 2.57,6.49 2.74,19.6 0.26,-0.28 6.08,-4.52 6.92,-5.29l0 -59.76c-0.24,-187.11 -5.31,-290.81 -86.75,-481.89l-23.75 -50.33c-17.37,-33.76 -177.38,-346.52 -184.8,-352.9 8.33,41.92 71.32,123.32 82.28,264.62 8.69,111.95 5.95,222.71 -13.21,333.79 -21.45,124.37 -26,126.64 -50.66,230.97l-34.29 109.54zm-543.93 -574.11c2.64,3.11 7.77,-0.95 11.68,-13.8 8.11,9.65 11.87,5.82 27.37,5.85 17.37,0.04 18.8,3.31 34.85,3.88l216.01 3.6c5.23,3.02 4.44,2.45 7.35,7.92 13.57,-14.89 18.12,-107.94 18.06,-126.56 -0.07,-21.89 2.88,-53.05 2.54,-66.67 -4.81,-189.17 -23.36,-256.51 -78.3,-417.8 -21.64,-63.54 -104.84,-262.13 -130.64,-282.38 1.11,15.73 26.97,72.85 34.59,100.91 51.85,190.89 -0.19,420.3 -61.8,593.09 -23.15,64.9 -36.5,88.45 -59.62,142.29l-22.09 49.69zm318.49 1001.35c-4.8,0.36 -10.19,9.48 -13.53,13.8 -6.39,8.28 -7.07,8.89 -13.22,18.15l-179.75 243.48c-0.5,0.89 -1.83,3.58 -2.24,4.44 -2.61,5.6 -1.04,1.93 -2.65,6.78 0.02,-0 39.72,-50.42 42.91,-56.27 17.04,1.36 34.98,7.3 54.05,7.45l393.84 37.11 6.35 8.57 36.74 -54.29c27.24,-42.6 68.07,-111.9 89.57,-159.53 6.86,-15.2 5.92,-5.51 4.31,-17.56 3.52,-29.39 14.75,-34.01 10.04,-38.55 -5.79,-5.58 -179.28,-16.21 -200.74,-19.41l-149.66 -14.09c-15.01,-1.35 -33.92,-6.92 -49.57,-7.26 7.37,-4.25 -4.44,6.88 -7.45,11.07 -8.48,11.76 -5.19,11.48 -19.02,16.1zm143.46 -234.5c-4.57,19.52 -54.96,98.66 -67.71,118.59 -11.97,18.71 -70.23,100.04 -75.75,115.92 13.82,-4.62 10.54,-4.33 19.02,-16.1 3.01,-4.19 14.83,-15.31 7.45,-11.07 15.66,0.34 34.57,5.91 49.57,7.26l149.66 14.09c21.46,3.2 194.95,13.83 200.74,19.41 4.71,4.54 -6.52,9.16 -10.04,38.55 22.37,-17.55 70.67,-172.56 81.03,-213.48 3.75,-14.8 8.18,-22.29 4.28,-35.94 -8.22,-11.52 -20.43,-9.56 -38.13,-9.44l-89.02 -7.5c-12.06,-0.71 -32.16,-4.89 -42.37,-6.47 -15.27,-2.36 -29.89,0.1 -45.52,-2.52 -42.45,-7.1 -55.07,-4.87 -87.16,-9.33 -16.24,-2.26 -26.81,-4.04 -45.26,-4.04 1.22,-7.08 0.01,1.85 -1.98,2.39l-8.81 -0.33zm-673.73 -393.24c-9.81,13.14 -18.06,29.28 -27.69,44.37 -10.21,16 -17.48,29.3 -27.64,45.77 -12.13,19.67 -48.88,84.08 -58.97,94.64 13.29,12.09 27.89,-34.54 38.09,-42.08 10.65,7.57 124.87,3.26 146.19,3.58l142.76 7.59c32.44,-0.02 66.31,1.02 98.45,-0.19 -1.54,1.08 1.18,-2.69 -3.06,3.36l-7.46 28.01c0.15,0.9 0.5,2.36 0.98,3.43 5.84,-13.55 10.43,-19.58 15.73,-29.95 5.22,-10.21 9.09,-16.78 14.69,-27.44 6.81,-12.96 24.27,-45.44 26.74,-58.17 -2,-9.96 39.81,-88.41 43.56,-114.44 -12.05,8.72 -24.37,0.46 -40.31,-0.12 -40.39,-1.5 -109.06,4.35 -141.83,-1.45 -34.89,-6.18 -118.99,-4.98 -160.1,-5.61l-19.48 -3.81c-9.32,14.17 -25.08,47.27 -40.65,52.51zm134.82 -228.43l-134.82 228.43c15.57,-5.24 31.33,-38.34 40.65,-52.51l19.48 3.81c41.11,0.63 125.21,-0.56 160.1,5.61 32.77,5.8 101.44,-0.04 141.83,1.45 15.94,0.59 28.26,8.84 40.31,0.12 -3.76,26.03 -45.56,104.48 -43.56,114.44 9.95,-12.96 24.03,-48.73 30.69,-64.35 10.41,-24.42 19.83,-45.99 29.69,-69.43 8.24,-19.61 49.46,-131.6 50.76,-148.15l5.23 -40.6 -155.63 -6.35c-32.75,-5.33 -143.84,4.6 -158.59,-4.82 -2.53,7.37 -19.1,40.38 -26.13,32.35zm620.89 428.93c-6.56,13.96 -11.34,32.81 -17.96,48.84 -7.08,17.15 -11.8,31.47 -19.06,48.38 -15.19,35.31 -26.21,62.7 -44.96,95.52l8.81 0.33c1.99,-0.54 3.2,-9.47 1.98,-2.39 18.45,0 29.01,1.78 45.26,4.04 32.09,4.46 44.7,2.22 87.16,9.33 15.63,2.62 30.24,0.15 45.52,2.52 10.21,1.58 30.31,5.76 42.37,6.47l89.02 7.5c17.7,-0.13 29.92,-2.08 38.13,9.44 5.52,-5.11 5.98,-1.86 9.51,-22.56 8.2,-48.16 24.57,-154.73 25.41,-201.45 -0.84,0.77 -6.66,5 -6.92,5.29 -0.17,-13.11 1.09,-10.89 -2.74,-19.6 -0.08,12.95 1.21,10.02 -2.78,18.38 -0.71,-0.51 -1.75,-0.91 -2.31,-1.09l-106.69 -12.8c-12.7,-1.93 -24.63,-0.03 -37.12,-1.19 -9.64,-0.89 -24.76,-3.78 -36.35,-5.73 -13.21,-2.22 -86.17,-2.48 -102.76,-12.46 -4.19,14.64 -5.21,19.24 -13.5,23.25zm-543.93 -574.11c-5.75,6.2 -13.56,24.1 -18.27,33.29l-48.03 92.48c-4.48,8.11 -6.43,10.09 -10.66,19.41 7.03,8.04 23.6,-24.98 26.13,-32.35 14.75,9.42 125.84,-0.51 158.59,4.82l155.63 6.35 -5.23 40.6c8.29,-12.94 18.51,-54.61 23.37,-73.92 4.61,-18.32 19.04,-67.7 15.73,-83.24 -2.91,-5.47 -2.12,-4.9 -7.35,-7.92l-216.01 -3.6c-16.06,-0.56 -17.48,-3.84 -34.85,-3.88 -15.5,-0.03 -19.26,3.8 -27.37,-5.85 -3.91,12.85 -9.04,16.91 -11.68,13.8zm559.81 -364.81l-1.75 -8 1.75 8z"/>
  <path class="fil1 str0" d="M2173.3 6399.9l0 -184.02 304.34 0 0 434.44c-29.52,44.87 -72.42,84.16 -128.68,118.37 -56.11,33.96 -113.03,50.95 -170.76,50.95 -73.23,0 -137,-23.83 -191.47,-71.73 -54.32,-47.91 -95.25,-116.6 -122.65,-205.57 -27.4,-88.97 -41.1,-186.04 -41.1,-290.73 0,-113.55 15.33,-214.43 45.83,-302.89 30.66,-88.21 75.34,-156.14 134.22,-203.28 45.02,-36.25 100.79,-54.25 167.66,-54.25 86.93,0 154.94,28.39 203.86,85.16 48.77,57.03 80.24,135.36 94.27,235.74l-140.92 41.06c-9.78,-53.48 -28.37,-95.81 -55.61,-126.99 -27.07,-30.93 -60.99,-46.38 -101.76,-46.38 -61.65,0 -110.74,30.42 -147.11,91.5 -36.37,61.09 -54.64,151.58 -54.64,271.47 0,129.53 18.43,226.61 55.29,291.24 37.03,64.63 85.3,97.07 145.15,97.07 29.53,0 59.21,-9.12 88.89,-27.12 29.85,-18 55.3,-40.04 76.66,-65.9l0 -138.14 -161.47 0zm707.18 399.98l0 -1088.91 481.46 0 0 184.02 -339.57 0 0 258.54 293.57 0 0 184.02 -293.57 0 0 462.33 -141.89 0zm869.62 0l0 -1088.91 481.45 0 0 184.02 -339.56 0 0 258.54 293.57 0 0 184.02 -293.57 0 0 462.33 -141.89 0zm1027.17 0l0 -904.89 -207.46 0 0 -184.02 555.83 0 0 184.02 -206.47 0 0 904.89 -141.89 0z"/>
 </g>
</svg>